<svg width="100%" viewBox="0 0 360 200" xmlns="http://www.w3.org/2000/svg" style="font-family:'Outfit',sans-serif;">
  <title>Quantica Risk Logo - Transparent Light Mode</title>
  <defs>
    <!-- クリップパス：グループの移動量（-7.5px, -18px）に完璧に自動追従するため、元の座標（cx=108, cy=118）を維持 -->
    <clipPath id="cL"><circle cx="108" cy="118" r="43"/></clipPath>
    <filter id="sh" x="-30%" y="-30%" width="160%" height="160%">
      <feDropShadow dx="0" dy="1" stdDeviation="2.5" flood-color="#167a7a" flood-opacity="0.16"/>
    </filter>
    <style>
      .wm1{fill:#1b2e35}
      .wm2{fill:#1A5276}
      .wmt{fill:#7a9ca0}
      .lbl{fill:#888780}
      .qr{stroke:#1A5276}
      .qr2{stroke:#2E86C1}
      .cs{stroke:#1A5276}
      .cf{fill:#1A5276}
      .sl{stroke:#2E86C1}
      .tl{stroke:#1A5276}
      .sp{stroke:#2E86C1}
    </style>
  </defs>

  <!-- 
    TRANSPARENT VERSION OF THE MASTER LOGO:
    マスター版のフォント、フォントサイズ、ロゴマークの形状・比率を100%完全に維持。
    背景カード（rect）を削除して透過させ、下部の「Probabilistic Risk Assessment」のみを削除しました。
  -->
  <g transform="translate(-7.5, -18)">
    <circle cx="108" cy="118" r="50" fill="none" class="qr" stroke-width="2.2" filter="url(#sh)" opacity="0.9"/>
    <circle cx="108" cy="118" r="43" fill="none" class="qr2" stroke-width="0.6" opacity="0.28"/>
    <g clip-path="url(#cL)">
      <path d="M 72.00,149.23 C 72.15,149.19 72.60,149.06 72.90,148.96 C 73.20,148.85 73.50,148.74 73.80,148.60 C 74.10,148.47 74.40,148.32 74.70,148.14 C 75.00,147.97 75.30,147.78 75.60,147.56 C 75.90,147.34 76.20,147.11 76.50,146.84 C 76.80,146.56 77.10,146.27 77.40,145.94 C 77.70,145.61 78.00,145.24 78.30,144.84 C 78.60,144.44 78.90,144.01 79.20,143.53 C 79.50,143.05 79.80,142.53 80.10,141.96 C 80.40,141.40 80.70,140.79 81.00,140.14 C 81.30,139.48 81.60,138.78 81.90,138.03 C 82.20,137.28 82.50,136.48 82.80,135.63 C 83.10,134.79 83.40,133.89 83.70,132.95 C 84.00,132.01 84.30,131.02 84.60,129.99 C 84.90,128.96 85.20,127.88 85.50,126.78 C 85.80,125.67 86.10,124.52 86.40,123.35 C 86.70,122.18 87.00,120.97 87.30,119.76 C 87.60,118.54 87.90,117.30 88.20,116.06 C 88.50,114.83 88.80,113.57 89.10,112.34 C 89.40,111.11 89.70,109.88 90.00,108.68 C 90.30,107.48 90.60,106.30 90.90,105.17 C 91.20,104.03 91.50,102.93 91.80,101.90 C 92.10,100.86 92.40,99.87 92.70,98.96 C 93.00,98.05 93.30,97.20 93.60,96.45 C 93.90,95.70 94.20,95.02 94.50,94.44 C 94.80,93.86 95.10,93.37 95.40,92.99 C 95.70,92.61 96.00,92.33 96.30,92.15 C 96.60,91.98 96.90,91.91 97.20,91.95 C 97.50,91.99 97.80,92.13 98.10,92.38 C 98.40,92.62 98.70,92.98 99.00,93.42 C 99.30,93.86 99.60,94.41 99.90,95.03 C 100.20,95.65 100.50,96.37 100.80,97.15 C 101.10,97.92 101.40,98.79 101.70,99.68 C 102.00,100.58 102.30,101.55 102.60,102.54 C 102.90,103.53 103.20,104.57 103.50,105.61 C 103.80,106.65 104.10,107.72 104.40,108.77 C 104.70,109.82 105.00,110.88 105.30,111.90 C 105.60,112.92 105.90,113.94 106.20,114.89 C 106.50,115.85 106.80,116.78 107.10,117.63 C 107.40,118.49 107.70,119.30 108.00,120.02 C 108.30,120.75 108.60,121.41 108.90,121.98 C 109.20,122.55 109.50,123.05 109.80,123.45 C 110.10,123.85 110.40,124.17 110.70,124.39 C 111.00,124.62 111.30,124.75 111.60,124.79 C 111.90,124.84 112.20,124.79 112.50,124.67 C 112.80,124.54 113.10,124.33 113.40,124.06 C 113.70,123.78 114.00,123.43 114.30,123.03 C 114.60,122.64 114.90,122.17 115.20,121.68 C 115.50,121.20 115.80,120.65 116.10,120.12 C 116.40,119.58 116.70,119.01 117.00,118.46 C 117.30,117.92 117.60,117.36 117.90,116.85 C 118.20,116.34 118.50,115.84 118.80,115.41 C 119.10,114.98 119.40,114.57 119.70,114.25 C 120.00,113.93 120.30,113.66 120.60,113.48 C 120.90,113.31 121.20,113.20 121.50,113.18 C 121.80,113.17 122.10,113.23 122.40,113.39 C 122.70,113.55 123.00,113.80 123.30,114.13 C 123.60,114.46 123.90,114.89 124.20,115.39 C 124.50,115.89 124.80,116.47 125.10,117.12 C 125.40,117.76 125.70,118.49 126.00,119.25 C 126.30,120.02 126.60,120.85 126.90,121.70 C 127.20,122.56 127.50,123.47 127.80,124.38 C 128.10,125.29 128.40,126.24 128.70,127.17 C 129.00,128.11 129.30,129.07 129.60,129.99 C 129.90,130.92 130.20,131.86 130.50,132.75 C 130.80,133.65 131.10,134.53 131.40,135.37 C 131.70,136.21 132.00,137.03 132.30,137.80 C 132.60,138.56 132.90,139.30 133.20,139.98 C 133.50,140.67 133.80,141.32 134.10,141.91 C 134.40,142.51 134.70,143.07 135.00,143.58 C 135.30,144.09 135.60,144.56 135.90,144.99 C 136.20,145.41 136.50,145.80 136.80,146.15 C 137.10,146.50 137.40,146.81 137.70,147.09 C 138.00,147.37 138.30,147.61 138.60,147.84 C 138.90,148.06 139.20,148.25 139.50,148.42 C 139.80,148.59 140.10,148.73 140.40,148.86 C 140.70,148.99 141.00,149.10 141.30,149.20 C 141.60,149.29 141.90,149.37 142.20,149.44 C 142.50,149.51 142.80,149.57 143.10,149.62 C 143.40,149.67 143.85,149.72 144.00,149.74 L 144.00,150 L 72.00,150 Z" class="cf" fill-opacity="0.10" stroke="none"/>
      <path d="M 72.00,149.23 C 72.15,149.19 72.60,149.06 72.90,148.96 C 73.20,148.85 73.50,148.74 73.80,148.60 C 74.10,148.47 74.40,148.32 74.70,148.14 C 75.00,147.97 75.30,147.78 75.60,147.56 C 75.90,147.34 76.20,147.11 76.50,146.84 C 76.80,146.56 77.10,146.27 77.40,145.94 C 77.70,145.61 78.00,145.24 78.30,144.84 C 78.60,144.44 78.90,144.01 79.20,143.53 C 79.50,143.05 79.80,142.53 80.10,141.96 C 80.40,141.40 80.70,140.79 81.00,140.14 C 81.30,139.48 81.60,138.78 81.90,138.03 C 82.20,137.28 82.50,136.48 82.80,135.63 C 83.10,134.79 83.40,133.89 83.70,132.95 C 84.00,132.01 84.30,131.02 84.60,129.99 C 84.90,128.96 85.20,127.88 85.50,126.78 C 85.80,125.67 86.10,124.52 86.40,123.35 C 86.70,122.18 87.00,120.97 87.30,119.76 C 87.60,118.54 87.90,117.30 88.20,116.06 C 88.50,114.83 88.80,113.57 89.10,112.34 C 89.40,111.11 89.70,109.88 90.00,108.68 C 90.30,107.48 90.60,106.30 90.90,105.17 C 91.20,104.03 91.50,102.93 91.80,101.90 C 92.10,100.86 92.40,99.87 92.70,98.96 C 93.00,98.05 93.30,97.20 93.60,96.45 C 93.90,95.70 94.20,95.02 94.50,94.44 C 94.80,93.86 95.10,93.37 95.40,92.99 C 95.70,92.61 96.00,92.33 96.30,92.15 C 96.60,91.98 96.90,91.91 97.20,91.95 C 97.50,91.99 97.80,92.13 98.10,92.38 C 98.40,92.62 98.70,92.98 99.00,93.42 C 99.30,93.86 99.60,94.41 99.90,95.03 C 100.20,95.65 100.50,96.37 100.80,97.15 C 101.10,97.92 101.40,98.79 101.70,99.68 C 102.00,100.58 102.30,101.55 102.60,102.54 C 102.90,103.53 103.20,104.57 103.50,105.61 C 103.80,106.65 104.10,107.72 104.40,108.77 C 104.70,109.82 105.00,110.88 105.30,111.90 C 105.60,112.92 105.90,113.94 106.20,114.89 C 106.50,115.85 106.80,116.78 107.10,117.63 C 107.40,118.49 107.70,119.30 108.00,120.02 C 108.30,120.75 108.60,121.41 108.90,121.98 C 109.20,122.55 109.50,123.05 109.80,123.45 C 110.10,123.85 110.40,124.17 110.70,124.39 C 111.00,124.62 111.30,124.75 111.60,124.79 C 111.90,124.84 112.20,124.79 112.50,124.67 C 112.80,124.54 113.10,124.33 113.40,124.06 C 113.70,123.78 114.00,123.43 114.30,123.03 C 114.60,122.64 114.90,122.17 115.20,121.68 C 115.50,121.20 115.80,120.65 116.10,120.12 C 116.40,119.58 116.70,119.01 117.00,118.46 C 117.30,117.92 117.60,117.36 117.90,116.85 C 118.20,116.34 118.50,115.84 118.80,115.41 C 119.10,114.98 119.40,114.57 119.70,114.25 C 120.00,113.93 120.30,113.66 120.60,113.48 C 120.90,113.31 121.20,113.20 121.50,113.18 C 121.80,113.17 122.10,113.23 122.40,113.39 C 122.70,113.55 123.00,113.80 123.30,114.13 C 123.60,114.46 123.90,114.89 124.20,115.39 C 124.50,115.89 124.80,116.47 125.10,117.12 C 125.40,117.76 125.70,118.49 126.00,119.25 C 126.30,120.02 126.60,120.85 126.90,121.70 C 127.20,122.56 127.50,123.47 127.80,124.38 C 128.10,125.29 128.40,126.24 128.70,127.17 C 129.00,128.11 129.30,129.07 129.60,129.99 C 129.90,130.92 130.20,131.86 130.50,132.75 C 130.80,133.65 131.10,134.53 131.40,135.37 C 131.70,136.21 132.00,137.03 132.30,137.80 C 132.60,138.56 132.90,139.30 133.20,139.98 C 133.50,140.67 133.80,141.32 134.10,141.91 C 134.40,142.51 134.70,143.07 135.00,143.58 C 135.30,144.09 135.60,144.56 135.90,144.99 C 136.20,145.41 136.50,145.80 136.80,146.15 C 137.10,146.50 137.40,146.81 137.70,147.09 C 138.00,147.37 138.30,147.61 138.60,147.84 C 138.90,148.06 139.20,148.25 139.50,148.42 C 139.80,148.59 140.10,148.73 140.40,148.86 C 140.70,148.99 141.00,149.10 141.30,149.20 C 141.60,149.29 141.90,149.37 142.20,149.44 C 142.50,149.51 142.80,149.57 143.10,149.62 C 143.40,149.67 143.85,149.72 144.00,149.74" fill="none" stroke="#1A5276" stroke-width="2" stroke-linecap="round" stroke-linejoin="round" opacity="0.9"/>
      <line x1="72" y1="150" x2="144" y2="150" class="sl" stroke-width="0.8" opacity="0.28"/>
      <!-- σを表すための、より端に寄せた破線 (数学的に波形曲線と完全に一致する交点y座標) -->
      <line x1="85.00" y1="128.50" x2="85.00" y2="150" class="sl" stroke-width="0.7" stroke-dasharray="3,2.5" opacity="0.30"/>
      <line x1="133.00" y1="139.50" x2="133.00" y2="150" class="sl" stroke-width="0.7" stroke-dasharray="3,2.5" opacity="0.30"/>
    </g>
    <line x1="146" y1="153" x2="163" y2="170" class="tl" stroke-width="5" stroke-linecap="round" opacity="0.85"/>
    <text x="184" y="107" font-family="'Outfit',sans-serif" font-size="21" font-weight="600" letter-spacing="1.5" class="wm1">Quantica</text>
    <line x1="184" y1="115" x2="302" y2="115" class="sp" stroke-width="0.7" opacity="0.32"/>
    <text x="184" y="134" font-family="'Outfit',sans-serif" font-size="14" font-weight="300" letter-spacing="6" class="wm2">Risk</text>
  </g>
</svg>
